<mxfile host="Electron" agent="Mozilla/5.0 (Windows NT 10.0; Win64; x64) AppleWebKit/537.36 (KHTML, like Gecko) draw.io/26.0.4 Chrome/128.0.6613.186 Electron/32.2.5 Safari/537.36" version="26.0.4">
  <diagram id="gCeDKUFmXwgEpgJZxGjS" name="Page-1">
    <mxGraphModel dx="919" dy="640" grid="1" gridSize="10" guides="1" tooltips="1" connect="1" arrows="1" fold="1" page="1" pageScale="1" pageWidth="850" pageHeight="1100" math="0" shadow="0">
      <root>
        <mxCell id="0" />
        <mxCell id="1" parent="0" />
        <mxCell id="zZSZFlzaFJ0X24T_Fiba-72" value="" style="rounded=0;whiteSpace=wrap;html=1;fontFamily=Helvetica;fontSize=12;fillColor=#bac8d3;strokeColor=#23445d;" parent="1" vertex="1">
          <mxGeometry x="1775" y="300" width="515" height="10" as="geometry" />
        </mxCell>
        <mxCell id="zZSZFlzaFJ0X24T_Fiba-70" value="" style="rounded=0;whiteSpace=wrap;html=1;fontFamily=Helvetica;fontSize=12;fillColor=#bac8d3;strokeColor=#23445d;" parent="1" vertex="1">
          <mxGeometry x="1775" y="665" width="515" height="10" as="geometry" />
        </mxCell>
        <mxCell id="zZSZFlzaFJ0X24T_Fiba-69" value="" style="rounded=0;whiteSpace=wrap;html=1;fontFamily=Helvetica;fontSize=12;fillColor=#bac8d3;strokeColor=#23445d;" parent="1" vertex="1">
          <mxGeometry x="1775" y="1104" width="515" height="10" as="geometry" />
        </mxCell>
        <mxCell id="zZSZFlzaFJ0X24T_Fiba-64" value="" style="rounded=0;whiteSpace=wrap;html=1;fontFamily=Helvetica;fontSize=12;fillColor=#bac8d3;strokeColor=#23445d;" parent="1" vertex="1">
          <mxGeometry x="20" y="1104" width="400" height="10" as="geometry" />
        </mxCell>
        <mxCell id="zZSZFlzaFJ0X24T_Fiba-1" value="CRSABIS 10&lt;br&gt;&lt;br&gt;Residential&lt;br&gt;Self use" style="rounded=1;whiteSpace=wrap;html=1;" parent="1" vertex="1">
          <mxGeometry x="140" y="90" width="130" height="80" as="geometry" />
        </mxCell>
        <mxCell id="zZSZFlzaFJ0X24T_Fiba-2" value="CRSABIS 11&lt;br&gt;&lt;br&gt;Residential&lt;br&gt;Other" style="rounded=1;whiteSpace=wrap;html=1;" parent="1" vertex="1">
          <mxGeometry x="140" y="470" width="130" height="80" as="geometry" />
        </mxCell>
        <mxCell id="zZSZFlzaFJ0X24T_Fiba-3" value="CRSABIS 12&lt;br&gt;&lt;br&gt;Commercial&lt;br&gt;Self use" style="rounded=1;whiteSpace=wrap;html=1;" parent="1" vertex="1">
          <mxGeometry x="140" y="835" width="130" height="80" as="geometry" />
        </mxCell>
        <mxCell id="zZSZFlzaFJ0X24T_Fiba-4" value="CRSABIS 13&lt;br&gt;&lt;br&gt;Commercial&lt;br&gt;Other" style="rounded=1;whiteSpace=wrap;html=1;" parent="1" vertex="1">
          <mxGeometry x="140" y="1245" width="130" height="80" as="geometry" />
        </mxCell>
        <mxCell id="zZSZFlzaFJ0X24T_Fiba-6" value="Prudential requirements are met ?&lt;br&gt;&lt;br style=&quot;font-size: 12px;&quot;&gt;Art. 72c al.1-3&lt;br&gt;&amp;nbsp;&lt;br style=&quot;font-size: 12px;&quot;&gt;&lt;span style=&quot;text-align: left;&quot;&gt;CALTVDefinedRWFlag = 1&lt;/span&gt;" style="rhombus;whiteSpace=wrap;html=1;fontFamily=Helvetica;fontSize=12;" parent="1" vertex="1">
          <mxGeometry x="1070" y="620" width="370" height="184" as="geometry" />
        </mxCell>
        <mxCell id="zZSZFlzaFJ0X24T_Fiba-12" value="" style="endArrow=classic;html=1;rounded=0;fontFamily=Helvetica;fontSize=12;exitX=1;exitY=0.5;exitDx=0;exitDy=0;entryX=0;entryY=0.5;entryDx=0;entryDy=0;fillColor=#a20025;strokeColor=#6F0000;" parent="1" source="zZSZFlzaFJ0X24T_Fiba-6" target="zZSZFlzaFJ0X24T_Fiba-14" edge="1">
          <mxGeometry width="50" height="50" relative="1" as="geometry">
            <mxPoint x="1204" y="500" as="sourcePoint" />
            <mxPoint x="1214" y="780" as="targetPoint" />
          </mxGeometry>
        </mxCell>
        <mxCell id="zZSZFlzaFJ0X24T_Fiba-14" value="Art.72c al.5 let.a&lt;br&gt;&lt;br&gt;IP : RW = 0.75&lt;br&gt;SME: RW = 0.85&lt;br&gt;Other: RW = RW of counterparty" style="rounded=1;whiteSpace=wrap;html=1;" parent="1" vertex="1">
          <mxGeometry x="1910" y="30" width="130" height="140" as="geometry" />
        </mxCell>
        <mxCell id="zZSZFlzaFJ0X24T_Fiba-15" value="Art.72c al.5 let.a&lt;br&gt;&lt;br&gt;IP : RW = 0.75&lt;br&gt;SME: RW = 0.85&lt;br&gt;Other: RW = RW of counterparty" style="rounded=1;whiteSpace=wrap;html=1;" parent="1" vertex="1">
          <mxGeometry x="1910" y="710" width="130" height="118" as="geometry" />
        </mxCell>
        <mxCell id="zZSZFlzaFJ0X24T_Fiba-16" value="" style="endArrow=classic;html=1;rounded=0;fontFamily=Helvetica;fontSize=12;exitX=1;exitY=0.5;exitDx=0;exitDy=0;entryX=0;entryY=0.5;entryDx=0;entryDy=0;fillColor=#a20025;strokeColor=#6F0000;" parent="1" source="zZSZFlzaFJ0X24T_Fiba-6" target="zZSZFlzaFJ0X24T_Fiba-15" edge="1">
          <mxGeometry width="50" height="50" relative="1" as="geometry">
            <mxPoint x="1138" y="484" as="sourcePoint" />
            <mxPoint x="1264" y="320" as="targetPoint" />
          </mxGeometry>
        </mxCell>
        <mxCell id="zZSZFlzaFJ0X24T_Fiba-17" value="Art.72c al.5 let.b&lt;br&gt;&lt;br&gt;RW = 1.5" style="rounded=1;whiteSpace=wrap;html=1;" parent="1" vertex="1">
          <mxGeometry x="1910" y="455" width="130" height="80" as="geometry" />
        </mxCell>
        <mxCell id="zZSZFlzaFJ0X24T_Fiba-19" value="Art.72c al.5 let.b&lt;br&gt;&lt;br&gt;RW = 1.5" style="rounded=1;whiteSpace=wrap;html=1;" parent="1" vertex="1">
          <mxGeometry x="1910" y="1160" width="130" height="80" as="geometry" />
        </mxCell>
        <mxCell id="zZSZFlzaFJ0X24T_Fiba-20" value="" style="endArrow=classic;html=1;rounded=0;fontFamily=Helvetica;fontSize=12;exitX=1;exitY=0.5;exitDx=0;exitDy=0;fillColor=#a20025;strokeColor=#6F0000;entryX=0;entryY=0.5;entryDx=0;entryDy=0;" parent="1" source="zZSZFlzaFJ0X24T_Fiba-6" target="zZSZFlzaFJ0X24T_Fiba-19" edge="1">
          <mxGeometry width="50" height="50" relative="1" as="geometry">
            <mxPoint x="1304" y="686" as="sourcePoint" />
            <mxPoint x="1464" y="990" as="targetPoint" />
          </mxGeometry>
        </mxCell>
        <mxCell id="zZSZFlzaFJ0X24T_Fiba-21" value="" style="endArrow=classic;html=1;rounded=0;fontFamily=Helvetica;fontSize=12;exitX=1;exitY=0.5;exitDx=0;exitDy=0;fillColor=#a20025;strokeColor=#6F0000;entryX=0;entryY=0.5;entryDx=0;entryDy=0;" parent="1" source="zZSZFlzaFJ0X24T_Fiba-6" target="zZSZFlzaFJ0X24T_Fiba-17" edge="1">
          <mxGeometry width="50" height="50" relative="1" as="geometry">
            <mxPoint x="1304" y="686" as="sourcePoint" />
            <mxPoint x="1484" y="1009.9999999999998" as="targetPoint" />
          </mxGeometry>
        </mxCell>
        <mxCell id="zZSZFlzaFJ0X24T_Fiba-23" value="Subordinated position ?" style="rhombus;whiteSpace=wrap;html=1;fontFamily=Helvetica;fontSize=12;" parent="1" vertex="1">
          <mxGeometry x="460" y="606" width="250" height="140" as="geometry" />
        </mxCell>
        <mxCell id="zZSZFlzaFJ0X24T_Fiba-27" value="" style="endArrow=classic;html=1;rounded=0;fontFamily=Helvetica;fontSize=12;exitX=1;exitY=0.5;exitDx=0;exitDy=0;entryX=-0.027;entryY=0.382;entryDx=0;entryDy=0;fillColor=#60a917;strokeColor=#2D7600;entryPerimeter=0;" parent="1" source="zZSZFlzaFJ0X24T_Fiba-23" target="zZSZFlzaFJ0X24T_Fiba-25" edge="1">
          <mxGeometry width="50" height="50" relative="1" as="geometry">
            <mxPoint x="1014" y="686" as="sourcePoint" />
            <mxPoint x="1184" y="270" as="targetPoint" />
          </mxGeometry>
        </mxCell>
        <mxCell id="zZSZFlzaFJ0X24T_Fiba-28" value="" style="endArrow=classic;html=1;rounded=0;fontFamily=Helvetica;fontSize=12;exitX=1;exitY=0.5;exitDx=0;exitDy=0;entryX=0;entryY=0.5;entryDx=0;entryDy=0;fillColor=#a20025;strokeColor=#6F0000;" parent="1" source="zZSZFlzaFJ0X24T_Fiba-23" target="zZSZFlzaFJ0X24T_Fiba-6" edge="1">
          <mxGeometry width="50" height="50" relative="1" as="geometry">
            <mxPoint x="1060" y="686" as="sourcePoint" />
            <mxPoint x="1184" y="270" as="targetPoint" />
          </mxGeometry>
        </mxCell>
        <mxCell id="zZSZFlzaFJ0X24T_Fiba-25" value="Art.72c al.6&lt;br&gt;&lt;br&gt;min ( 1.25 * RW appendix 3 chi.3 (unless lower RW of chi.), RW art.72c al.5)" style="rounded=1;whiteSpace=wrap;html=1;" parent="1" vertex="1">
          <mxGeometry x="2070" y="30" width="130" height="1340" as="geometry" />
        </mxCell>
        <mxCell id="zZSZFlzaFJ0X24T_Fiba-33" value="Land and construction loans ?" style="rhombus;whiteSpace=wrap;html=1;fontFamily=Helvetica;fontSize=12;" parent="1" vertex="1">
          <mxGeometry x="780" y="490" width="250" height="140" as="geometry" />
        </mxCell>
        <mxCell id="zZSZFlzaFJ0X24T_Fiba-34" value="" style="endArrow=classic;html=1;rounded=0;fontFamily=Helvetica;fontSize=12;exitX=1;exitY=0.5;exitDx=0;exitDy=0;entryX=0;entryY=0.5;entryDx=0;entryDy=0;fillColor=#a20025;strokeColor=#6F0000;" parent="1" source="zZSZFlzaFJ0X24T_Fiba-23" target="zZSZFlzaFJ0X24T_Fiba-33" edge="1">
          <mxGeometry width="50" height="50" relative="1" as="geometry">
            <mxPoint x="580" y="686" as="sourcePoint" />
            <mxPoint x="1100" y="686" as="targetPoint" />
          </mxGeometry>
        </mxCell>
        <mxCell id="zZSZFlzaFJ0X24T_Fiba-38" value="" style="endArrow=classic;html=1;rounded=0;fontFamily=Helvetica;fontSize=12;exitX=1;exitY=0.5;exitDx=0;exitDy=0;entryX=0;entryY=0.5;entryDx=0;entryDy=0;fillColor=#60a917;strokeColor=#2D7600;" parent="1" source="zZSZFlzaFJ0X24T_Fiba-33" target="zZSZFlzaFJ0X24T_Fiba-50" edge="1">
          <mxGeometry width="50" height="50" relative="1" as="geometry">
            <mxPoint x="580" y="686" as="sourcePoint" />
            <mxPoint x="1120" y="460" as="targetPoint" />
          </mxGeometry>
        </mxCell>
        <mxCell id="zZSZFlzaFJ0X24T_Fiba-39" value="" style="endArrow=classic;html=1;rounded=0;fontFamily=Helvetica;fontSize=12;exitX=1;exitY=0.5;exitDx=0;exitDy=0;entryX=0;entryY=0.5;entryDx=0;entryDy=0;fillColor=#a20025;strokeColor=#6F0000;" parent="1" source="zZSZFlzaFJ0X24T_Fiba-33" target="zZSZFlzaFJ0X24T_Fiba-6" edge="1">
          <mxGeometry width="50" height="50" relative="1" as="geometry">
            <mxPoint x="580" y="686" as="sourcePoint" />
            <mxPoint x="850" y="570" as="targetPoint" />
          </mxGeometry>
        </mxCell>
        <mxCell id="zZSZFlzaFJ0X24T_Fiba-40" value="Appendix 3&lt;br&gt;chi. 3.1" style="rounded=1;whiteSpace=wrap;html=1;" parent="1" vertex="1">
          <mxGeometry x="1910" y="180" width="130" height="70" as="geometry" />
        </mxCell>
        <mxCell id="zZSZFlzaFJ0X24T_Fiba-42" value="Appendix 3&lt;br&gt;chi. 3.2" style="rounded=1;whiteSpace=wrap;html=1;" parent="1" vertex="1">
          <mxGeometry x="1910" y="545" width="130" height="70" as="geometry" />
        </mxCell>
        <mxCell id="zZSZFlzaFJ0X24T_Fiba-43" value="Appendix 3&lt;br&gt;chi. 3.3" style="rounded=1;whiteSpace=wrap;html=1;" parent="1" vertex="1">
          <mxGeometry x="1910" y="840" width="130" height="70" as="geometry" />
        </mxCell>
        <mxCell id="zZSZFlzaFJ0X24T_Fiba-44" value="Appendix 3&lt;br&gt;chi. 3.4" style="rounded=1;whiteSpace=wrap;html=1;" parent="1" vertex="1">
          <mxGeometry x="1910" y="1250" width="130" height="70" as="geometry" />
        </mxCell>
        <mxCell id="zZSZFlzaFJ0X24T_Fiba-45" value="" style="endArrow=classic;html=1;rounded=0;fontFamily=Helvetica;fontSize=12;exitX=1;exitY=0.5;exitDx=0;exitDy=0;fillColor=#60a917;strokeColor=#2D7600;entryX=0;entryY=0.5;entryDx=0;entryDy=0;" parent="1" source="zZSZFlzaFJ0X24T_Fiba-6" target="zZSZFlzaFJ0X24T_Fiba-44" edge="1">
          <mxGeometry width="50" height="50" relative="1" as="geometry">
            <mxPoint x="1450" y="722" as="sourcePoint" />
            <mxPoint x="1570" y="1010" as="targetPoint" />
          </mxGeometry>
        </mxCell>
        <mxCell id="zZSZFlzaFJ0X24T_Fiba-46" value="" style="endArrow=classic;html=1;rounded=0;fontFamily=Helvetica;fontSize=12;exitX=1;exitY=0.5;exitDx=0;exitDy=0;fillColor=#60a917;strokeColor=#2D7600;entryX=0;entryY=0.5;entryDx=0;entryDy=0;" parent="1" source="zZSZFlzaFJ0X24T_Fiba-6" target="zZSZFlzaFJ0X24T_Fiba-43" edge="1">
          <mxGeometry width="50" height="50" relative="1" as="geometry">
            <mxPoint x="1450" y="722" as="sourcePoint" />
            <mxPoint x="1570" y="1115" as="targetPoint" />
          </mxGeometry>
        </mxCell>
        <mxCell id="zZSZFlzaFJ0X24T_Fiba-47" value="" style="endArrow=classic;html=1;rounded=0;fontFamily=Helvetica;fontSize=12;exitX=1;exitY=0.5;exitDx=0;exitDy=0;fillColor=#60a917;strokeColor=#2D7600;entryX=0;entryY=0.5;entryDx=0;entryDy=0;" parent="1" source="zZSZFlzaFJ0X24T_Fiba-6" target="zZSZFlzaFJ0X24T_Fiba-42" edge="1">
          <mxGeometry width="50" height="50" relative="1" as="geometry">
            <mxPoint x="1450" y="722" as="sourcePoint" />
            <mxPoint x="1570" y="874.9999999999998" as="targetPoint" />
          </mxGeometry>
        </mxCell>
        <mxCell id="zZSZFlzaFJ0X24T_Fiba-49" value="LTV &amp;lt;= 0.7" style="rhombus;whiteSpace=wrap;html=1;fontFamily=Helvetica;fontSize=12;" parent="1" vertex="1">
          <mxGeometry x="1560" y="500" width="170" height="90" as="geometry" />
        </mxCell>
        <mxCell id="zZSZFlzaFJ0X24T_Fiba-50" value="Prudential requirements are met ?&lt;br&gt;&lt;b&gt;&lt;br&gt;Art. 72c al.1 let. b-f&lt;br&gt;&lt;br&gt;&lt;/b&gt;&lt;span style=&quot;text-align: left;&quot;&gt;CALTVDefinedRWFlag = 1&lt;/span&gt;&lt;b&gt;&lt;br&gt;&lt;/b&gt;" style="rhombus;whiteSpace=wrap;html=1;fontFamily=Helvetica;fontSize=12;" parent="1" vertex="1">
          <mxGeometry x="1080" y="410" width="330" height="170" as="geometry" />
        </mxCell>
        <mxCell id="zZSZFlzaFJ0X24T_Fiba-51" value="" style="endArrow=classic;html=1;rounded=0;fontFamily=Helvetica;fontSize=12;exitX=1;exitY=0.5;exitDx=0;exitDy=0;fillColor=#60a917;strokeColor=#2D7600;entryX=0;entryY=0.5;entryDx=0;entryDy=0;" parent="1" source="zZSZFlzaFJ0X24T_Fiba-50" target="zZSZFlzaFJ0X24T_Fiba-40" edge="1">
          <mxGeometry width="50" height="50" relative="1" as="geometry">
            <mxPoint x="1450" y="722" as="sourcePoint" />
            <mxPoint x="1570" y="355" as="targetPoint" />
          </mxGeometry>
        </mxCell>
        <mxCell id="zZSZFlzaFJ0X24T_Fiba-52" value="" style="endArrow=classic;html=1;rounded=0;fontFamily=Helvetica;fontSize=12;exitX=1;exitY=0.5;exitDx=0;exitDy=0;entryX=0;entryY=0.5;entryDx=0;entryDy=0;fillColor=#a20025;strokeColor=#6F0000;" parent="1" source="zZSZFlzaFJ0X24T_Fiba-50" target="zZSZFlzaFJ0X24T_Fiba-14" edge="1">
          <mxGeometry width="50" height="50" relative="1" as="geometry">
            <mxPoint x="1450" y="722" as="sourcePoint" />
            <mxPoint x="1570" y="240" as="targetPoint" />
          </mxGeometry>
        </mxCell>
        <mxCell id="zZSZFlzaFJ0X24T_Fiba-53" value="RW = 1" style="rounded=1;whiteSpace=wrap;html=1;" parent="1" vertex="1">
          <mxGeometry x="1910" y="405" width="130" height="40" as="geometry" />
        </mxCell>
        <mxCell id="zZSZFlzaFJ0X24T_Fiba-55" value="RW = 1.5" style="rounded=1;whiteSpace=wrap;html=1;" parent="1" vertex="1">
          <mxGeometry x="1910" y="355" width="130" height="40" as="geometry" />
        </mxCell>
        <mxCell id="zZSZFlzaFJ0X24T_Fiba-56" value="" style="endArrow=classic;html=1;rounded=0;fontFamily=Helvetica;fontSize=12;exitX=1;exitY=0.5;exitDx=0;exitDy=0;fillColor=#60a917;strokeColor=#2D7600;entryX=0;entryY=0.5;entryDx=0;entryDy=0;" parent="1" source="zZSZFlzaFJ0X24T_Fiba-50" target="zZSZFlzaFJ0X24T_Fiba-49" edge="1">
          <mxGeometry width="50" height="50" relative="1" as="geometry">
            <mxPoint x="1420" y="505" as="sourcePoint" />
            <mxPoint x="1920" y="225" as="targetPoint" />
          </mxGeometry>
        </mxCell>
        <mxCell id="zZSZFlzaFJ0X24T_Fiba-57" value="" style="endArrow=classic;html=1;rounded=0;fontFamily=Helvetica;fontSize=12;exitX=1;exitY=0.5;exitDx=0;exitDy=0;fillColor=#60a917;strokeColor=#2D7600;entryX=0;entryY=0.5;entryDx=0;entryDy=0;" parent="1" source="zZSZFlzaFJ0X24T_Fiba-49" target="zZSZFlzaFJ0X24T_Fiba-53" edge="1">
          <mxGeometry width="50" height="50" relative="1" as="geometry">
            <mxPoint x="1420" y="505" as="sourcePoint" />
            <mxPoint x="1920" y="225" as="targetPoint" />
          </mxGeometry>
        </mxCell>
        <mxCell id="zZSZFlzaFJ0X24T_Fiba-58" value="" style="endArrow=classic;html=1;rounded=0;fontFamily=Helvetica;fontSize=12;exitX=1;exitY=0.5;exitDx=0;exitDy=0;entryX=0;entryY=0.5;entryDx=0;entryDy=0;fillColor=#a20025;strokeColor=#6F0000;" parent="1" source="zZSZFlzaFJ0X24T_Fiba-50" target="zZSZFlzaFJ0X24T_Fiba-55" edge="1">
          <mxGeometry width="50" height="50" relative="1" as="geometry">
            <mxPoint x="1420" y="505" as="sourcePoint" />
            <mxPoint x="1920" y="110" as="targetPoint" />
          </mxGeometry>
        </mxCell>
        <mxCell id="zZSZFlzaFJ0X24T_Fiba-59" value="" style="endArrow=classic;html=1;rounded=0;fontFamily=Helvetica;fontSize=12;exitX=1;exitY=0.5;exitDx=0;exitDy=0;entryX=0;entryY=0.5;entryDx=0;entryDy=0;fillColor=#a20025;strokeColor=#6F0000;" parent="1" source="zZSZFlzaFJ0X24T_Fiba-49" target="zZSZFlzaFJ0X24T_Fiba-55" edge="1">
          <mxGeometry width="50" height="50" relative="1" as="geometry">
            <mxPoint x="1420" y="505" as="sourcePoint" />
            <mxPoint x="1920" y="440" as="targetPoint" />
          </mxGeometry>
        </mxCell>
        <mxCell id="zZSZFlzaFJ0X24T_Fiba-60" value="Art.72c al.5 let.a&lt;br&gt;&lt;br&gt;IP : RW = 0.75&lt;br&gt;SME: RW = 0.85&lt;br&gt;Other: RW = RW of counterparty" style="rounded=1;whiteSpace=wrap;html=1;" parent="1" vertex="1">
          <mxGeometry x="1910" y="920" width="130" height="140" as="geometry" />
        </mxCell>
        <mxCell id="zZSZFlzaFJ0X24T_Fiba-61" value="" style="endArrow=classic;html=1;rounded=0;fontFamily=Helvetica;fontSize=12;exitX=1;exitY=0.5;exitDx=0;exitDy=0;fillColor=#60a917;strokeColor=#2D7600;entryX=0;entryY=0.5;entryDx=0;entryDy=0;" parent="1" source="zZSZFlzaFJ0X24T_Fiba-33" target="zZSZFlzaFJ0X24T_Fiba-60" edge="1">
          <mxGeometry width="50" height="50" relative="1" as="geometry">
            <mxPoint x="1450" y="722" as="sourcePoint" />
            <mxPoint x="1920" y="885" as="targetPoint" />
          </mxGeometry>
        </mxCell>
        <mxCell id="zZSZFlzaFJ0X24T_Fiba-62" value="RW = 1.5" style="rounded=1;whiteSpace=wrap;html=1;" parent="1" vertex="1">
          <mxGeometry x="1910" y="1330" width="130" height="40" as="geometry" />
        </mxCell>
        <mxCell id="zZSZFlzaFJ0X24T_Fiba-63" value="" style="endArrow=classic;html=1;rounded=0;fontFamily=Helvetica;fontSize=12;exitX=1;exitY=0.5;exitDx=0;exitDy=0;fillColor=#60a917;strokeColor=#2D7600;entryX=0;entryY=0.5;entryDx=0;entryDy=0;" parent="1" source="zZSZFlzaFJ0X24T_Fiba-33" target="zZSZFlzaFJ0X24T_Fiba-62" edge="1">
          <mxGeometry width="50" height="50" relative="1" as="geometry">
            <mxPoint x="1420" y="505" as="sourcePoint" />
            <mxPoint x="1800" y="1130" as="targetPoint" />
          </mxGeometry>
        </mxCell>
        <mxCell id="zZSZFlzaFJ0X24T_Fiba-71" value="" style="rounded=0;whiteSpace=wrap;html=1;fontFamily=Helvetica;fontSize=12;fillColor=#bac8d3;strokeColor=#23445d;" parent="1" vertex="1">
          <mxGeometry x="20" y="665" width="400" height="10" as="geometry" />
        </mxCell>
        <mxCell id="zZSZFlzaFJ0X24T_Fiba-73" value="" style="rounded=0;whiteSpace=wrap;html=1;fontFamily=Helvetica;fontSize=12;fillColor=#bac8d3;strokeColor=#23445d;" parent="1" vertex="1">
          <mxGeometry x="20" y="300" width="400" height="10" as="geometry" />
        </mxCell>
      </root>
    </mxGraphModel>
  </diagram>
</mxfile>
